<?xml version="1.0" encoding="UTF-8" standalone="no"?>
<!DOCTYPE svg PUBLIC "-//W3C//DTD SVG 1.1//EN"
 "http://www.w3.org/Graphics/SVG/1.1/DTD/svg11.dtd">
<!-- Generated by graphviz version 15.1.0 (0)
 -->
<!-- Title: G Pages: 1 -->
<svg width="2958pt" height="246pt"
 viewBox="0.00 0.00 2958.00 246.00" xmlns="http://www.w3.org/2000/svg" xmlns:xlink="http://www.w3.org/1999/xlink">
<g id="graph0" class="graph" transform="scale(1 1) rotate(0) translate(21.6 224.85)">
<title>G</title>
<polygon fill="#111111" stroke="none" points="-21.6,21.6 -21.6,-224.85 2936.85,-224.85 2936.85,21.6 -21.6,21.6"/>
<!-- ../../modules/workspace/context/WorkspaceContext.jsx -->
<g id="node1" class="node">
<title>../../modules/workspace/context/WorkspaceContext.jsx</title>
<path fill="none" stroke="#c6c5fe" d="M1748.83,-89.25C1748.83,-89.25 1370.17,-89.25 1370.17,-89.25 1365.96,-89.25 1361.75,-85.04 1361.75,-80.83 1361.75,-80.83 1361.75,-72.42 1361.75,-72.42 1361.75,-68.21 1365.96,-64 1370.17,-64 1370.17,-64 1748.83,-64 1748.83,-64 1753.04,-64 1757.25,-68.21 1757.25,-72.42 1757.25,-72.42 1757.25,-80.83 1757.25,-80.83 1757.25,-85.04 1753.04,-89.25 1748.83,-89.25"/>
<text xml:space="preserve" text-anchor="middle" x="1559.5" y="-71.95" font-family="Arial" font-size="14.00" fill="#c6c5fe">../../modules/workspace/context/WorkspaceContext.jsx</text>
</g>
<!-- ../../modules/workspace/core/WorkspaceActions.js -->
<g id="node2" class="node">
<title>../../modules/workspace/core/WorkspaceActions.js</title>
<path fill="none" stroke="#c6c5fe" d="M2145.83,-89.25C2145.83,-89.25 1801.67,-89.25 1801.67,-89.25 1797.46,-89.25 1793.25,-85.04 1793.25,-80.83 1793.25,-80.83 1793.25,-72.42 1793.25,-72.42 1793.25,-68.21 1797.46,-64 1801.67,-64 1801.67,-64 2145.83,-64 2145.83,-64 2150.04,-64 2154.25,-68.21 2154.25,-72.42 2154.25,-72.42 2154.25,-80.83 2154.25,-80.83 2154.25,-85.04 2150.04,-89.25 2145.83,-89.25"/>
<text xml:space="preserve" text-anchor="middle" x="1973.75" y="-71.95" font-family="Arial" font-size="14.00" fill="#c6c5fe">../../modules/workspace/core/WorkspaceActions.js</text>
</g>
<!-- ../../modules/workspace/context/WorkspaceContext.jsx&#45;&gt;../../modules/workspace/core/WorkspaceActions.js -->
<g id="edge1" class="edge">
<title>../../modules/workspace/context/WorkspaceContext.jsx&#45;&gt;../../modules/workspace/core/WorkspaceActions.js</title>
<path fill="none" stroke="#757575" d="M1757.57,-76.62C1765.59,-76.62 1773.63,-76.62 1781.64,-76.62"/>
<polygon fill="#757575" stroke="#757575" points="1781.42,-80.13 1791.42,-76.63 1781.42,-73.13 1781.42,-80.13"/>
</g>
<!-- ../../modules/workspace/core/FileManager.js -->
<g id="node3" class="node">
<title>../../modules/workspace/core/FileManager.js</title>
<path fill="none" stroke="#cfffac" d="M2527.08,-154.25C2527.08,-154.25 2227.17,-154.25 2227.17,-154.25 2222.96,-154.25 2218.75,-150.04 2218.75,-145.83 2218.75,-145.83 2218.75,-137.42 2218.75,-137.42 2218.75,-133.21 2222.96,-129 2227.17,-129 2227.17,-129 2527.08,-129 2527.08,-129 2531.29,-129 2535.5,-133.21 2535.5,-137.42 2535.5,-137.42 2535.5,-145.83 2535.5,-145.83 2535.5,-150.04 2531.29,-154.25 2527.08,-154.25"/>
<text xml:space="preserve" text-anchor="middle" x="2377.12" y="-136.95" font-family="Arial" font-size="14.00" fill="#cfffac">../../modules/workspace/core/FileManager.js</text>
</g>
<!-- ../../modules/workspace/core/WorkspaceActions.js&#45;&gt;../../modules/workspace/core/FileManager.js -->
<g id="edge4" class="edge">
<title>../../modules/workspace/core/WorkspaceActions.js&#45;&gt;../../modules/workspace/core/FileManager.js</title>
<path fill="none" stroke="#757575" d="M2031.67,-89.69C2074.97,-99.27 2136.13,-112.06 2190.25,-120.62 2204.96,-122.95 2220.37,-125.12 2235.75,-127.11"/>
<polygon fill="#757575" stroke="#757575" points="2235.07,-130.55 2245.43,-128.34 2235.95,-123.61 2235.07,-130.55"/>
</g>
<!-- ../../modules/workspace/core/FolderManager.js -->
<g id="node4" class="node">
<title>../../modules/workspace/core/FolderManager.js</title>
<path fill="none" stroke="#cfffac" d="M2537.21,-111.25C2537.21,-111.25 2217.04,-111.25 2217.04,-111.25 2212.83,-111.25 2208.62,-107.04 2208.62,-102.83 2208.62,-102.83 2208.62,-94.42 2208.62,-94.42 2208.62,-90.21 2212.83,-86 2217.04,-86 2217.04,-86 2537.21,-86 2537.21,-86 2541.42,-86 2545.62,-90.21 2545.62,-94.42 2545.62,-94.42 2545.62,-102.83 2545.62,-102.83 2545.62,-107.04 2541.42,-111.25 2537.21,-111.25"/>
<text xml:space="preserve" text-anchor="middle" x="2377.12" y="-93.95" font-family="Arial" font-size="14.00" fill="#cfffac">../../modules/workspace/core/FolderManager.js</text>
</g>
<!-- ../../modules/workspace/core/WorkspaceActions.js&#45;&gt;../../modules/workspace/core/FolderManager.js -->
<g id="edge5" class="edge">
<title>../../modules/workspace/core/WorkspaceActions.js&#45;&gt;../../modules/workspace/core/FolderManager.js</title>
<path fill="none" stroke="#757575" d="M2154.6,-86.48C2168.67,-87.25 2182.88,-88.03 2196.94,-88.8"/>
<polygon fill="#757575" stroke="#757575" points="2196.5,-92.28 2206.68,-89.34 2196.89,-85.3 2196.5,-92.28"/>
</g>
<!-- ../../modules/workspace/core/TreeManager.js -->
<g id="node5" class="node">
<title>../../modules/workspace/core/TreeManager.js</title>
<path fill="none" stroke="#c6c5fe" d="M2530.08,-68.25C2530.08,-68.25 2224.17,-68.25 2224.17,-68.25 2219.96,-68.25 2215.75,-64.04 2215.75,-59.83 2215.75,-59.83 2215.75,-51.42 2215.75,-51.42 2215.75,-47.21 2219.96,-43 2224.17,-43 2224.17,-43 2530.08,-43 2530.08,-43 2534.29,-43 2538.5,-47.21 2538.5,-51.42 2538.5,-51.42 2538.5,-59.83 2538.5,-59.83 2538.5,-64.04 2534.29,-68.25 2530.08,-68.25"/>
<text xml:space="preserve" text-anchor="middle" x="2377.12" y="-50.95" font-family="Arial" font-size="14.00" fill="#c6c5fe">../../modules/workspace/core/TreeManager.js</text>
</g>
<!-- ../../modules/workspace/core/WorkspaceActions.js&#45;&gt;../../modules/workspace/core/TreeManager.js -->
<g id="edge6" class="edge">
<title>../../modules/workspace/core/WorkspaceActions.js&#45;&gt;../../modules/workspace/core/TreeManager.js</title>
<path fill="none" stroke="#757575" d="M2154.6,-67.22C2171.04,-66.36 2187.66,-65.49 2204.03,-64.63"/>
<polygon fill="#757575" stroke="#757575" points="2204,-68.14 2213.8,-64.12 2203.63,-61.15 2204,-68.14"/>
</g>
<!-- ../../modules/workspace/core/WorkspaceSerializer.js -->
<g id="node8" class="node">
<title>../../modules/workspace/core/WorkspaceSerializer.js</title>
<path fill="none" stroke="#cfffac" d="M2555.58,-25.25C2555.58,-25.25 2198.67,-25.25 2198.67,-25.25 2194.46,-25.25 2190.25,-21.04 2190.25,-16.83 2190.25,-16.83 2190.25,-8.42 2190.25,-8.42 2190.25,-4.21 2194.46,0 2198.67,0 2198.67,0 2555.58,0 2555.58,0 2559.79,0 2564,-4.21 2564,-8.42 2564,-8.42 2564,-16.83 2564,-16.83 2564,-21.04 2559.79,-25.25 2555.58,-25.25"/>
<text xml:space="preserve" text-anchor="middle" x="2377.12" y="-7.95" font-family="Arial" font-size="14.00" fill="#cfffac">../../modules/workspace/core/WorkspaceSerializer.js</text>
</g>
<!-- ../../modules/workspace/core/WorkspaceActions.js&#45;&gt;../../modules/workspace/core/WorkspaceSerializer.js -->
<g id="edge7" class="edge">
<title>../../modules/workspace/core/WorkspaceActions.js&#45;&gt;../../modules/workspace/core/WorkspaceSerializer.js</title>
<path fill="none" stroke="#757575" d="M2033.51,-63.51C2076.7,-54.2 2136.91,-41.94 2190.25,-33.62 2205.1,-31.31 2220.65,-29.14 2236.17,-27.15"/>
<polygon fill="#757575" stroke="#757575" points="2236.46,-30.64 2245.95,-25.92 2235.59,-23.7 2236.46,-30.64"/>
</g>
<!-- ../../modules/workspace/utils/treeHelpers.js -->
<g id="node6" class="node">
<title>../../modules/workspace/utils/treeHelpers.js</title>
<path fill="none" stroke="#cfffac" d="M2906.83,-89.25C2906.83,-89.25 2608.42,-89.25 2608.42,-89.25 2604.21,-89.25 2600,-85.04 2600,-80.83 2600,-80.83 2600,-72.42 2600,-72.42 2600,-68.21 2604.21,-64 2608.42,-64 2608.42,-64 2906.83,-64 2906.83,-64 2911.04,-64 2915.25,-68.21 2915.25,-72.42 2915.25,-72.42 2915.25,-80.83 2915.25,-80.83 2915.25,-85.04 2911.04,-89.25 2906.83,-89.25"/>
<text xml:space="preserve" text-anchor="middle" x="2757.62" y="-71.95" font-family="Arial" font-size="14.00" fill="#cfffac">../../modules/workspace/utils/treeHelpers.js</text>
</g>
<!-- ../../modules/workspace/core/TreeManager.js&#45;&gt;../../modules/workspace/utils/treeHelpers.js -->
<g id="edge2" class="edge">
<title>../../modules/workspace/core/TreeManager.js&#45;&gt;../../modules/workspace/utils/treeHelpers.js</title>
<path fill="none" stroke="#757575" d="M2538.92,-64.55C2555.28,-65.45 2571.93,-66.38 2588.36,-67.29"/>
<polygon fill="#757575" stroke="#757575" points="2588.01,-70.78 2598.19,-67.83 2588.4,-63.79 2588.01,-70.78"/>
</g>
<!-- ../../modules/workspace/utils/uuid.js -->
<g id="node7" class="node">
<title>../../modules/workspace/utils/uuid.js</title>
<path fill="none" stroke="#cfffac" d="M2882.08,-46.25C2882.08,-46.25 2633.17,-46.25 2633.17,-46.25 2628.96,-46.25 2624.75,-42.04 2624.75,-37.83 2624.75,-37.83 2624.75,-29.42 2624.75,-29.42 2624.75,-25.21 2628.96,-21 2633.17,-21 2633.17,-21 2882.08,-21 2882.08,-21 2886.29,-21 2890.5,-25.21 2890.5,-29.42 2890.5,-29.42 2890.5,-37.83 2890.5,-37.83 2890.5,-42.04 2886.29,-46.25 2882.08,-46.25"/>
<text xml:space="preserve" text-anchor="middle" x="2757.62" y="-28.95" font-family="Arial" font-size="14.00" fill="#cfffac">../../modules/workspace/utils/uuid.js</text>
</g>
<!-- ../../modules/workspace/core/TreeManager.js&#45;&gt;../../modules/workspace/utils/uuid.js -->
<g id="edge3" class="edge">
<title>../../modules/workspace/core/TreeManager.js&#45;&gt;../../modules/workspace/utils/uuid.js</title>
<path fill="none" stroke="#757575" d="M2538.92,-46.28C2563.51,-44.85 2588.76,-43.38 2612.96,-41.98"/>
<polygon fill="#757575" stroke="#757575" points="2613.08,-45.47 2622.86,-41.4 2612.67,-38.49 2613.08,-45.47"/>
</g>
<!-- ../../modules/workspace/hooks/useExplorer.js -->
<g id="node9" class="node">
<title>../../modules/workspace/hooks/useExplorer.js</title>
<path fill="none" stroke="#c6c5fe" d="M933.83,-47.25C933.83,-47.25 622.67,-47.25 622.67,-47.25 618.46,-47.25 614.25,-43.04 614.25,-38.83 614.25,-38.83 614.25,-30.42 614.25,-30.42 614.25,-26.21 618.46,-22 622.67,-22 622.67,-22 933.83,-22 933.83,-22 938.04,-22 942.25,-26.21 942.25,-30.42 942.25,-30.42 942.25,-38.83 942.25,-38.83 942.25,-43.04 938.04,-47.25 933.83,-47.25"/>
<text xml:space="preserve" text-anchor="middle" x="778.25" y="-29.95" font-family="Arial" font-size="14.00" fill="#c6c5fe">../../modules/workspace/hooks/useExplorer.js</text>
</g>
<!-- ../../modules/workspace/hooks/useWorkspace.js -->
<g id="node10" class="node">
<title>../../modules/workspace/hooks/useWorkspace.js</title>
<path fill="none" stroke="#c6c5fe" d="M1317.33,-89.25C1317.33,-89.25 986.67,-89.25 986.67,-89.25 982.46,-89.25 978.25,-85.04 978.25,-80.83 978.25,-80.83 978.25,-72.42 978.25,-72.42 978.25,-68.21 982.46,-64 986.67,-64 986.67,-64 1317.33,-64 1317.33,-64 1321.54,-64 1325.75,-68.21 1325.75,-72.42 1325.75,-72.42 1325.75,-80.83 1325.75,-80.83 1325.75,-85.04 1321.54,-89.25 1317.33,-89.25"/>
<text xml:space="preserve" text-anchor="middle" x="1152" y="-71.95" font-family="Arial" font-size="14.00" fill="#c6c5fe">../../modules/workspace/hooks/useWorkspace.js</text>
</g>
<!-- ../../modules/workspace/hooks/useExplorer.js&#45;&gt;../../modules/workspace/hooks/useWorkspace.js -->
<g id="edge8" class="edge">
<title>../../modules/workspace/hooks/useExplorer.js&#45;&gt;../../modules/workspace/hooks/useWorkspace.js</title>
<path fill="none" stroke="#757575" d="M895.34,-47.74C936.13,-52.35 982.16,-57.55 1023.81,-62.26"/>
<polygon fill="#757575" stroke="#757575" points="1023.31,-65.72 1033.64,-63.37 1024.1,-58.77 1023.31,-65.72"/>
</g>
<!-- ../../modules/workspace/utils/searchTree.js -->
<g id="node11" class="node">
<title>../../modules/workspace/utils/searchTree.js</title>
<path fill="none" stroke="#cfffac" d="M1298.21,-46.25C1298.21,-46.25 1005.79,-46.25 1005.79,-46.25 1001.58,-46.25 997.38,-42.04 997.38,-37.83 997.38,-37.83 997.38,-29.42 997.38,-29.42 997.38,-25.21 1001.58,-21 1005.79,-21 1005.79,-21 1298.21,-21 1298.21,-21 1302.42,-21 1306.62,-25.21 1306.62,-29.42 1306.62,-29.42 1306.62,-37.83 1306.62,-37.83 1306.62,-42.04 1302.42,-46.25 1298.21,-46.25"/>
<text xml:space="preserve" text-anchor="middle" x="1152" y="-28.95" font-family="Arial" font-size="14.00" fill="#cfffac">../../modules/workspace/utils/searchTree.js</text>
</g>
<!-- ../../modules/workspace/hooks/useExplorer.js&#45;&gt;../../modules/workspace/utils/searchTree.js -->
<g id="edge9" class="edge">
<title>../../modules/workspace/hooks/useExplorer.js&#45;&gt;../../modules/workspace/utils/searchTree.js</title>
<path fill="none" stroke="#757575" d="M942.58,-34.19C956.88,-34.15 971.37,-34.11 985.69,-34.07"/>
<polygon fill="#757575" stroke="#757575" points="985.63,-37.57 995.62,-34.04 985.61,-30.57 985.63,-37.57"/>
</g>
<!-- ../../modules/workspace/hooks/useWorkspace.js&#45;&gt;../../modules/workspace/context/WorkspaceContext.jsx -->
<g id="edge10" class="edge">
<title>../../modules/workspace/hooks/useWorkspace.js&#45;&gt;../../modules/workspace/context/WorkspaceContext.jsx</title>
<path fill="none" stroke="#757575" d="M1326.14,-76.62C1334.05,-76.62 1342.01,-76.62 1349.98,-76.62"/>
<polygon fill="#757575" stroke="#757575" points="1349.74,-80.13 1359.74,-76.63 1349.74,-73.13 1349.74,-80.13"/>
</g>
<!-- ../common/BackButton.jsx -->
<g id="node12" class="node">
<title>../common/BackButton.jsx</title>
<path fill="none" stroke="#cfffac" d="M388.08,-203.25C388.08,-203.25 206.67,-203.25 206.67,-203.25 202.46,-203.25 198.25,-199.04 198.25,-194.83 198.25,-194.83 198.25,-186.42 198.25,-186.42 198.25,-182.21 202.46,-178 206.67,-178 206.67,-178 388.08,-178 388.08,-178 392.29,-178 396.5,-182.21 396.5,-186.42 396.5,-186.42 396.5,-194.83 396.5,-194.83 396.5,-199.04 392.29,-203.25 388.08,-203.25"/>
<text xml:space="preserve" text-anchor="middle" x="297.38" y="-185.95" font-family="Arial" font-size="14.00" fill="#cfffac">../common/BackButton.jsx</text>
</g>
<!-- ActivityBar.jsx -->
<g id="node13" class="node">
<title>ActivityBar.jsx</title>
<path fill="none" stroke="#c6c5fe" d="M345.71,-160.25C345.71,-160.25 249.04,-160.25 249.04,-160.25 244.83,-160.25 240.62,-156.04 240.62,-151.83 240.62,-151.83 240.62,-143.42 240.62,-143.42 240.62,-139.21 244.83,-135 249.04,-135 249.04,-135 345.71,-135 345.71,-135 349.92,-135 354.12,-139.21 354.12,-143.42 354.12,-143.42 354.12,-151.83 354.12,-151.83 354.12,-156.04 349.92,-160.25 345.71,-160.25"/>
<text xml:space="preserve" text-anchor="middle" x="297.38" y="-142.95" font-family="Arial" font-size="14.00" fill="#c6c5fe">ActivityBar.jsx</text>
</g>
<!-- ActivityButton.jsx -->
<g id="node14" class="node">
<title>ActivityButton.jsx</title>
<path fill="none" stroke="#cfffac" d="M565.71,-170.25C565.71,-170.25 445.04,-170.25 445.04,-170.25 440.83,-170.25 436.62,-166.04 436.62,-161.83 436.62,-161.83 436.62,-153.42 436.62,-153.42 436.62,-149.21 440.83,-145 445.04,-145 445.04,-145 565.71,-145 565.71,-145 569.92,-145 574.12,-149.21 574.12,-153.42 574.12,-153.42 574.12,-161.83 574.12,-161.83 574.12,-166.04 569.92,-170.25 565.71,-170.25"/>
<text xml:space="preserve" text-anchor="middle" x="505.38" y="-152.95" font-family="Arial" font-size="14.00" fill="#cfffac">ActivityButton.jsx</text>
</g>
<!-- ActivityBar.jsx&#45;&gt;ActivityButton.jsx -->
<g id="edge11" class="edge">
<title>ActivityBar.jsx&#45;&gt;ActivityButton.jsx</title>
<path fill="none" stroke="#757575" d="M354.39,-150.34C376.1,-151.4 401.35,-152.62 424.87,-153.77"/>
<polygon fill="#757575" stroke="#757575" points="424.59,-157.26 434.74,-154.24 424.93,-150.26 424.59,-157.26"/>
</g>
<!-- ExplorerItem.jsx -->
<g id="node15" class="node">
<title>ExplorerItem.jsx</title>
<path fill="none" stroke="#c6c5fe" d="M834.46,-129.25C834.46,-129.25 722.04,-129.25 722.04,-129.25 717.83,-129.25 713.62,-125.04 713.62,-120.83 713.62,-120.83 713.62,-112.42 713.62,-112.42 713.62,-108.21 717.83,-104 722.04,-104 722.04,-104 834.46,-104 834.46,-104 838.67,-104 842.88,-108.21 842.88,-112.42 842.88,-112.42 842.88,-120.83 842.88,-120.83 842.88,-125.04 838.67,-129.25 834.46,-129.25"/>
<text xml:space="preserve" text-anchor="middle" x="778.25" y="-111.95" font-family="Arial" font-size="14.00" fill="#c6c5fe">ExplorerItem.jsx</text>
</g>
<!-- ExplorerItem.jsx&#45;&gt;../../modules/workspace/hooks/useWorkspace.js -->
<g id="edge12" class="edge">
<title>ExplorerItem.jsx&#45;&gt;../../modules/workspace/hooks/useWorkspace.js</title>
<path fill="none" stroke="#757575" d="M843.16,-109.75C891.04,-104.6 958.24,-97.37 1017.65,-90.97"/>
<polygon fill="#757575" stroke="#757575" points="1017.96,-94.46 1027.53,-89.91 1017.21,-87.5 1017.96,-94.46"/>
</g>
<!-- ExplorerPanel.jsx -->
<g id="node16" class="node">
<title>ExplorerPanel.jsx</title>
<path fill="none" stroke="#c6c5fe" d="M356.21,-107.25C356.21,-107.25 238.54,-107.25 238.54,-107.25 234.33,-107.25 230.12,-103.04 230.12,-98.83 230.12,-98.83 230.12,-90.42 230.12,-90.42 230.12,-86.21 234.33,-82 238.54,-82 238.54,-82 356.21,-82 356.21,-82 360.42,-82 364.62,-86.21 364.62,-90.42 364.62,-90.42 364.62,-98.83 364.62,-98.83 364.62,-103.04 360.42,-107.25 356.21,-107.25"/>
<text xml:space="preserve" text-anchor="middle" x="297.38" y="-89.95" font-family="Arial" font-size="14.00" fill="#c6c5fe">ExplorerPanel.jsx</text>
</g>
<!-- ExplorerPanel.jsx&#45;&gt;../../modules/workspace/hooks/useExplorer.js -->
<g id="edge13" class="edge">
<title>ExplorerPanel.jsx&#45;&gt;../../modules/workspace/hooks/useExplorer.js</title>
<path fill="none" stroke="#757575" d="M332.83,-81.57C359.59,-72.05 397.86,-59.78 432.5,-53.62 487.44,-43.86 548.01,-38.69 602.85,-36.05"/>
<polygon fill="#757575" stroke="#757575" points="602.75,-39.56 612.58,-35.61 602.43,-32.57 602.75,-39.56"/>
</g>
<!-- ExplorerPanel.jsx&#45;&gt;ExplorerItem.jsx -->
<g id="edge14" class="edge">
<title>ExplorerPanel.jsx&#45;&gt;ExplorerItem.jsx</title>
<path fill="none" stroke="#757575" d="M364.96,-97.68C453.4,-101.75 609.22,-108.91 701.89,-113.16"/>
<polygon fill="#757575" stroke="#757575" points="701.48,-116.65 711.63,-113.61 701.8,-109.65 701.48,-116.65"/>
</g>
<!-- ExplorerToolbar.jsx -->
<g id="node17" class="node">
<title>ExplorerToolbar.jsx</title>
<path fill="none" stroke="#c6c5fe" d="M569.83,-88.25C569.83,-88.25 440.92,-88.25 440.92,-88.25 436.71,-88.25 432.5,-84.04 432.5,-79.83 432.5,-79.83 432.5,-71.42 432.5,-71.42 432.5,-67.21 436.71,-63 440.92,-63 440.92,-63 569.83,-63 569.83,-63 574.04,-63 578.25,-67.21 578.25,-71.42 578.25,-71.42 578.25,-79.83 578.25,-79.83 578.25,-84.04 574.04,-88.25 569.83,-88.25"/>
<text xml:space="preserve" text-anchor="middle" x="505.38" y="-70.95" font-family="Arial" font-size="14.00" fill="#c6c5fe">ExplorerToolbar.jsx</text>
</g>
<!-- ExplorerPanel.jsx&#45;&gt;ExplorerToolbar.jsx -->
<g id="edge15" class="edge">
<title>ExplorerPanel.jsx&#45;&gt;ExplorerToolbar.jsx</title>
<path fill="none" stroke="#757575" d="M364.97,-88.48C382.79,-86.84 402.27,-85.04 420.87,-83.33"/>
<polygon fill="#757575" stroke="#757575" points="421.17,-86.81 430.81,-82.41 420.53,-79.84 421.17,-86.81"/>
</g>
<!-- ExplorerToolbar.jsx&#45;&gt;../../modules/workspace/hooks/useExplorer.js -->
<g id="edge16" class="edge">
<title>ExplorerToolbar.jsx&#45;&gt;../../modules/workspace/hooks/useExplorer.js</title>
<path fill="none" stroke="#757575" d="M578.61,-64.69C609.59,-60 646.25,-54.45 679.59,-49.41"/>
<polygon fill="#757575" stroke="#757575" points="679.9,-52.9 689.26,-47.94 678.85,-45.98 679.9,-52.9"/>
</g>
<!-- ExplorerToolbar.jsx&#45;&gt;../../modules/workspace/hooks/useWorkspace.js -->
<g id="edge17" class="edge">
<title>ExplorerToolbar.jsx&#45;&gt;../../modules/workspace/hooks/useWorkspace.js</title>
<path fill="none" stroke="#757575" d="M578.45,-75.74C671.66,-75.88 837.39,-76.14 966.64,-76.34"/>
<polygon fill="#757575" stroke="#757575" points="966.33,-79.84 976.33,-76.35 966.34,-72.84 966.33,-79.84"/>
</g>
<!-- WorkspaceLayout.jsx -->
<g id="node18" class="node">
<title>WorkspaceLayout.jsx</title>
<path fill="none" stroke="#c6c5fe" d="M153.83,-160.25C153.83,-160.25 8.42,-160.25 8.42,-160.25 4.21,-160.25 0,-156.04 0,-151.83 0,-151.83 0,-143.42 0,-143.42 0,-139.21 4.21,-135 8.42,-135 8.42,-135 153.83,-135 153.83,-135 158.04,-135 162.25,-139.21 162.25,-143.42 162.25,-143.42 162.25,-151.83 162.25,-151.83 162.25,-156.04 158.04,-160.25 153.83,-160.25"/>
<text xml:space="preserve" text-anchor="middle" x="81.12" y="-142.95" font-family="Arial" font-size="14.00" fill="#c6c5fe">WorkspaceLayout.jsx</text>
</g>
<!-- WorkspaceLayout.jsx&#45;&gt;../common/BackButton.jsx -->
<g id="edge18" class="edge">
<title>WorkspaceLayout.jsx&#45;&gt;../common/BackButton.jsx</title>
<path fill="none" stroke="#757575" d="M147.28,-160.7C170.24,-165.31 196.25,-170.53 220.04,-175.31"/>
<polygon fill="#757575" stroke="#757575" points="219.18,-178.7 229.68,-177.24 220.56,-171.84 219.18,-178.7"/>
</g>
<!-- WorkspaceLayout.jsx&#45;&gt;ActivityBar.jsx -->
<g id="edge19" class="edge">
<title>WorkspaceLayout.jsx&#45;&gt;ActivityBar.jsx</title>
<path fill="none" stroke="#757575" d="M162.51,-147.62C184.35,-147.62 207.78,-147.62 228.83,-147.62"/>
<polygon fill="#757575" stroke="#757575" points="228.74,-151.13 238.74,-147.63 228.74,-144.13 228.74,-151.13"/>
</g>
<!-- WorkspaceLayout.jsx&#45;&gt;ExplorerPanel.jsx -->
<g id="edge20" class="edge">
<title>WorkspaceLayout.jsx&#45;&gt;ExplorerPanel.jsx</title>
<path fill="none" stroke="#757575" d="M135.09,-134.52C164.55,-127.23 201.44,-118.11 232.5,-110.43"/>
<polygon fill="#757575" stroke="#757575" points="233.32,-113.83 242.18,-108.03 231.64,-107.03 233.32,-113.83"/>
</g>
</g>
</svg>
